# xmcd
#
# Track frame offsets: 
#        150
#        11241
#        16229
#        29864
#        41358
#        52399
#        62170
#        75427
#        84248
#        93584
#        103742
#        113157
#        138849
#        144426
#        163554
#        183871
#        208515
#        229721
#
# Disc length: 3145 seconds
#
# Revision: 0
# Processed by: cddbd v1.5.2PL0 Copyright (c) Steve Scherf et al.
# Submitted via: ExactAudioCopy v0.99pb5
#
DISCID=ec0c4712
DTITLE=Jan and Dean  - Collector's Series - Disc 6-Liberty Years 1965-
DTITLE=66
DYEAR=1900
DGENRE=
TTITLE0=I Found a Girl (take 8, track only)
TTITLE1=I Found a Girl (intercut)
TTITLE2=I Found a Girl (stereo track with overdubs)
TTITLE3=I Found a Girl (backing track)
TTITLE4=It's a Shame to Say Goodbye (track only)
TTITLE5=It's a Shame to Say Goodbye (Demo)
TTITLE6=Where Were You When I Needed You (alt.)
TTITLE7=Norwegian Wood (12\\19\\65 mix)
TTITLE8=Norwegian Wood (3\\9\\66 mix)
TTITLE9=Norwegian Wood (3\\14\\66 mix)
TTITLE10=Norwegian Wood (3\\21\\66 mix)
TTITLE11=Teenager in Bat (sessions)
TTITLE12=Batman Cues (dub down session)
TTITLE13=The Joker Strikes Again (Batman dialogue)
TTITLE14=The Ridler Back in Action (Batman dialogue)
TTITLE15=The Penguin Part I (Batman Dialogue)
TTITLE16=The Penguin Part II (Batman Dialogue)
TTITLE17=Batman Cue 1 (take 1)
EXTD=
EXTT0=
EXTT1=
EXTT2=
EXTT3=
EXTT4=
EXTT5=
EXTT6=
EXTT7=
EXTT8=
EXTT9=
EXTT10=
EXTT11=
EXTT12=
EXTT13=
EXTT14=
EXTT15=
EXTT16=
EXTT17=
PLAYORDER=
